{
    "asset" : {
        "generator" : "Khronos glTF Blender I/O v1.5.17",
        "version" : "2.0"
    },
    "scene" : 0,
    "scenes" : [
        {
            "name" : "Scene",
            "nodes" : [
                8,
                9,
                10
            ]
        }
    ],
    "nodes" : [
        {
            "mesh" : 0,
            "name" : "Mesh_0"
        },
        {
            "mesh" : 1,
            "name" : "Mesh_1"
        },
        {
            "mesh" : 2,
            "name" : "Mesh_2"
        },
        {
            "mesh" : 3,
            "name" : "Mesh_3"
        },
        {
            "mesh" : 4,
            "name" : "Mesh_4"
        },
        {
            "mesh" : 5,
            "name" : "Mesh_5"
        },
        {
            "children" : [
                0,
                1,
                2,
                3,
                4,
                5
            ],
            "name" : "Predator_Color.obj.cleaner.materialmerger.gles"
        },
        {
            "children" : [
                6
            ],
            "name" : "RootNode (model correction matrix)"
        },
        {
            "children" : [
                7
            ],
            "name" : "RootNode (gltf orientation matrix)",
            "rotation" : [
                -0.7071068286895752,
                0,
                0,
                0.7071068286895752
            ],
            "scale" : [
                0.0174191202968359,
                0.01741912215948105,
                0.01741912215948105
            ],
            "translation" : [
                0.00042567402124404907,
                0.0007378219161182642,
                -0.0008869152516126633
            ]
        },
        {
            "name" : "Light",
            "rotation" : [
                0.16907575726509094,
                0.7558803558349609,
                -0.27217137813568115,
                0.570947527885437
            ],
            "scale" : [
                0.01741912215948105,
                0.01741912215948105,
                0.01741912215948105
            ],
            "translation" : [
                0.0714302808046341,
                0.10357791930437088,
                -0.018401024863123894
            ]
        },
        {
            "name" : "Camera",
            "rotation" : [
                0.483536034822464,
                0.33687159419059753,
                -0.20870360732078552,
                0.7804827094078064
            ],
            "scale" : [
                0.01741912215948105,
                0.0174191202968359,
                0.01741912215948105
            ],
            "translation" : [
                0.12861108779907227,
                0.08710718899965286,
                0.11975423991680145
            ]
        }
    ],
    "materials" : [
        {
            "doubleSided" : true,
            "name" : "mat0_c.jpg",
            "pbrMetallicRoughness" : {
                "baseColorTexture" : {
                    "index" : 0
                },
                "metallicRoughnessTexture" : {
                    "index" : 1
                },
                "roughnessFactor" : 0.6000000238418579
            }
        },
        {
            "doubleSided" : true,
            "name" : "mat4_c.jpg",
            "pbrMetallicRoughness" : {
                "baseColorTexture" : {
                    "index" : 2
                },
                "metallicRoughnessTexture" : {
                    "index" : 3
                },
                "roughnessFactor" : 0.6000000238418579
            }
        },
        {
            "doubleSided" : true,
            "name" : "mat1_c.jpg",
            "pbrMetallicRoughness" : {
                "baseColorTexture" : {
                    "index" : 4
                },
                "metallicRoughnessTexture" : {
                    "index" : 5
                },
                "roughnessFactor" : 0.6000000238418579
            }
        },
        {
            "doubleSided" : true,
            "name" : "mat3_c.jpg",
            "pbrMetallicRoughness" : {
                "baseColorTexture" : {
                    "index" : 6
                },
                "metallicRoughnessTexture" : {
                    "index" : 7
                },
                "roughnessFactor" : 0.6000000238418579
            }
        },
        {
            "doubleSided" : true,
            "name" : "mat2_c.jpg",
            "pbrMetallicRoughness" : {
                "baseColorTexture" : {
                    "index" : 8
                },
                "metallicRoughnessTexture" : {
                    "index" : 9
                },
                "roughnessFactor" : 0.6000000238418579
            }
        }
    ],
    "meshes" : [
        {
            "name" : "Mesh_0",
            "primitives" : [
                {
                    "attributes" : {
                        "POSITION" : 0,
                        "NORMAL" : 1,
                        "TEXCOORD_0" : 2
                    },
                    "indices" : 3,
                    "material" : 0
                }
            ]
        },
        {
            "name" : "Mesh_1",
            "primitives" : [
                {
                    "attributes" : {
                        "POSITION" : 4,
                        "NORMAL" : 5,
                        "TEXCOORD_0" : 6
                    },
                    "indices" : 7,
                    "material" : 1
                }
            ]
        },
        {
            "name" : "Mesh_2",
            "primitives" : [
                {
                    "attributes" : {
                        "POSITION" : 8,
                        "NORMAL" : 9,
                        "TEXCOORD_0" : 10
                    },
                    "indices" : 11,
                    "material" : 2
                }
            ]
        },
        {
            "name" : "Mesh_3",
            "primitives" : [
                {
                    "attributes" : {
                        "POSITION" : 12,
                        "NORMAL" : 13,
                        "TEXCOORD_0" : 14
                    },
                    "indices" : 15,
                    "material" : 3
                }
            ]
        },
        {
            "name" : "Mesh_4",
            "primitives" : [
                {
                    "attributes" : {
                        "POSITION" : 16,
                        "NORMAL" : 17,
                        "TEXCOORD_0" : 18
                    },
                    "indices" : 19,
                    "material" : 4
                }
            ]
        },
        {
            "name" : "Mesh_5",
            "primitives" : [
                {
                    "attributes" : {
                        "POSITION" : 20,
                        "NORMAL" : 21,
                        "TEXCOORD_0" : 22
                    },
                    "indices" : 23,
                    "material" : 0
                }
            ]
        }
    ],
    "textures" : [
        {
            "sampler" : 0,
            "source" : 0
        },
        {
            "sampler" : 0,
            "source" : 1
        },
        {
            "sampler" : 0,
            "source" : 2
        },
        {
            "sampler" : 0,
            "source" : 3
        },
        {
            "sampler" : 0,
            "source" : 4
        },
        {
            "sampler" : 0,
            "source" : 5
        },
        {
            "sampler" : 0,
            "source" : 6
        },
        {
            "sampler" : 0,
            "source" : 7
        },
        {
            "sampler" : 0,
            "source" : 8
        },
        {
            "sampler" : 0,
            "source" : 9
        }
    ],
    "images" : [
        {
            "mimeType" : "image/jpeg",
            "name" : "mat0_c.jpg_baseColor",
            "uri" : "mat0_c_jpg_baseColor.jpg"
        },
        {
            "mimeType" : "image/png",
            "name" : "mat0_c.jpg_metallicRoughness",
            "uri" : "mat0_c_jpg_metallicRoughness.png"
        },
        {
            "mimeType" : "image/jpeg",
            "name" : "mat4_c.jpg_baseColor",
            "uri" : "mat4_c_jpg_baseColor.jpg"
        },
        {
            "mimeType" : "image/png",
            "name" : "mat4_c.jpg_metallicRoughness",
            "uri" : "mat4_c_jpg_metallicRoughness.png"
        },
        {
            "mimeType" : "image/jpeg",
            "name" : "mat1_c.jpg_baseColor",
            "uri" : "mat1_c_jpg_baseColor.jpg"
        },
        {
            "mimeType" : "image/png",
            "name" : "mat1_c.jpg_metallicRoughness",
            "uri" : "mat1_c_jpg_metallicRoughness.png"
        },
        {
            "mimeType" : "image/jpeg",
            "name" : "mat3_c.jpg_baseColor",
            "uri" : "mat3_c_jpg_baseColor.jpg"
        },
        {
            "mimeType" : "image/png",
            "name" : "mat3_c.jpg_metallicRoughness",
            "uri" : "mat3_c_jpg_metallicRoughness.png"
        },
        {
            "mimeType" : "image/jpeg",
            "name" : "mat2_c.jpg_baseColor",
            "uri" : "mat2_c_jpg_baseColor.jpg"
        },
        {
            "mimeType" : "image/png",
            "name" : "mat2_c.jpg_metallicRoughness",
            "uri" : "mat2_c_jpg_metallicRoughness.png"
        }
    ],
    "accessors" : [
        {
            "bufferView" : 0,
            "componentType" : 5126,
            "count" : 4494,
            "max" : [
                7.584060192108154,
                8.820830345153809,
                6.99837589263916
            ],
            "min" : [
                -8.322797775268555,
                -7.851565837860107,
                0.2092590034008026
            ],
            "type" : "VEC3"
        },
        {
            "bufferView" : 1,
            "componentType" : 5126,
            "count" : 4494,
            "type" : "VEC3"
        },
        {
            "bufferView" : 2,
            "componentType" : 5126,
            "count" : 4494,
            "type" : "VEC2"
        },
        {
            "bufferView" : 3,
            "componentType" : 5123,
            "count" : 7059,
            "type" : "SCALAR"
        },
        {
            "bufferView" : 4,
            "componentType" : 5126,
            "count" : 963,
            "max" : [
                1.1745320558547974,
                5.321993827819824,
                10
            ],
            "min" : [
                -2.7929799556732178,
                0.4371339976787567,
                8.032350540161133
            ],
            "type" : "VEC3"
        },
        {
            "bufferView" : 5,
            "componentType" : 5126,
            "count" : 963,
            "type" : "VEC3"
        },
        {
            "bufferView" : 6,
            "componentType" : 5126,
            "count" : 963,
            "type" : "VEC2"
        },
        {
            "bufferView" : 7,
            "componentType" : 5123,
            "count" : 2643,
            "type" : "SCALAR"
        },
        {
            "bufferView" : 8,
            "componentType" : 5126,
            "count" : 746,
            "max" : [
                4.279159069061279,
                6.311615943908691,
                8.591019630432129
            ],
            "min" : [
                -5.513649940490723,
                -5.448452949523926,
                5.905794143676758
            ],
            "type" : "VEC3"
        },
        {
            "bufferView" : 9,
            "componentType" : 5126,
            "count" : 746,
            "type" : "VEC3"
        },
        {
            "bufferView" : 10,
            "componentType" : 5126,
            "count" : 746,
            "type" : "VEC2"
        },
        {
            "bufferView" : 11,
            "componentType" : 5123,
            "count" : 1926,
            "type" : "SCALAR"
        },
        {
            "bufferView" : 12,
            "componentType" : 5126,
            "count" : 372,
            "max" : [
                7.714540958404541,
                8.951146125793457,
                3.0794079303741455
            ],
            "min" : [
                -8.306507110595703,
                -8.171259880065918,
                0.015572999604046345
            ],
            "type" : "VEC3"
        },
        {
            "bufferView" : 13,
            "componentType" : 5126,
            "count" : 372,
            "type" : "VEC3"
        },
        {
            "bufferView" : 14,
            "componentType" : 5126,
            "count" : 372,
            "type" : "VEC2"
        },
        {
            "bufferView" : 15,
            "componentType" : 5123,
            "count" : 1440,
            "type" : "SCALAR"
        },
        {
            "bufferView" : 16,
            "componentType" : 5126,
            "count" : 2038,
            "max" : [
                7.831573963165283,
                6.007681846618652,
                6.255327224731445
            ],
            "min" : [
                -6.72705078125,
                -7.439709186553955,
                1.9234329462051392
            ],
            "type" : "VEC3"
        },
        {
            "bufferView" : 17,
            "componentType" : 5126,
            "count" : 2038,
            "type" : "VEC3"
        },
        {
            "bufferView" : 18,
            "componentType" : 5126,
            "count" : 2038,
            "type" : "VEC2"
        },
        {
            "bufferView" : 19,
            "componentType" : 5123,
            "count" : 5460,
            "type" : "SCALAR"
        },
        {
            "bufferView" : 20,
            "componentType" : 5126,
            "count" : 432,
            "max" : [
                4.381840229034424,
                5.1579909324646,
                8.690486907958984
            ],
            "min" : [
                -5.9308857917785645,
                -3.8110198974609375,
                1.8420920372009277
            ],
            "type" : "VEC3"
        },
        {
            "bufferView" : 21,
            "componentType" : 5126,
            "count" : 432,
            "type" : "VEC3"
        },
        {
            "bufferView" : 22,
            "componentType" : 5126,
            "count" : 432,
            "type" : "VEC2"
        },
        {
            "bufferView" : 23,
            "componentType" : 5123,
            "count" : 1086,
            "type" : "SCALAR"
        }
    ],
    "bufferViews" : [
        {
            "buffer" : 0,
            "byteLength" : 53928,
            "byteOffset" : 0
        },
        {
            "buffer" : 0,
            "byteLength" : 53928,
            "byteOffset" : 53928
        },
        {
            "buffer" : 0,
            "byteLength" : 35952,
            "byteOffset" : 107856
        },
        {
            "buffer" : 0,
            "byteLength" : 14118,
            "byteOffset" : 143808
        },
        {
            "buffer" : 0,
            "byteLength" : 11556,
            "byteOffset" : 157928
        },
        {
            "buffer" : 0,
            "byteLength" : 11556,
            "byteOffset" : 169484
        },
        {
            "buffer" : 0,
            "byteLength" : 7704,
            "byteOffset" : 181040
        },
        {
            "buffer" : 0,
            "byteLength" : 5286,
            "byteOffset" : 188744
        },
        {
            "buffer" : 0,
            "byteLength" : 8952,
            "byteOffset" : 194032
        },
        {
            "buffer" : 0,
            "byteLength" : 8952,
            "byteOffset" : 202984
        },
        {
            "buffer" : 0,
            "byteLength" : 5968,
            "byteOffset" : 211936
        },
        {
            "buffer" : 0,
            "byteLength" : 3852,
            "byteOffset" : 217904
        },
        {
            "buffer" : 0,
            "byteLength" : 4464,
            "byteOffset" : 221756
        },
        {
            "buffer" : 0,
            "byteLength" : 4464,
            "byteOffset" : 226220
        },
        {
            "buffer" : 0,
            "byteLength" : 2976,
            "byteOffset" : 230684
        },
        {
            "buffer" : 0,
            "byteLength" : 2880,
            "byteOffset" : 233660
        },
        {
            "buffer" : 0,
            "byteLength" : 24456,
            "byteOffset" : 236540
        },
        {
            "buffer" : 0,
            "byteLength" : 24456,
            "byteOffset" : 260996
        },
        {
            "buffer" : 0,
            "byteLength" : 16304,
            "byteOffset" : 285452
        },
        {
            "buffer" : 0,
            "byteLength" : 10920,
            "byteOffset" : 301756
        },
        {
            "buffer" : 0,
            "byteLength" : 5184,
            "byteOffset" : 312676
        },
        {
            "buffer" : 0,
            "byteLength" : 5184,
            "byteOffset" : 317860
        },
        {
            "buffer" : 0,
            "byteLength" : 3456,
            "byteOffset" : 323044
        },
        {
            "buffer" : 0,
            "byteLength" : 2172,
            "byteOffset" : 326500
        }
    ],
    "samplers" : [
        {
            "magFilter" : 9729,
            "minFilter" : 9987,
            "wrapS" : 10497,
            "wrapT" : 33648
        }
    ],
    "buffers" : [
        {
            "byteLength" : 328672,
            "uri" : "scene.bin"
        }
    ]
}
